<svg width="166" height="70" viewBox="0 0 166 70" fill="none" xmlns="http://www.w3.org/2000/svg">
<path d="M92.1 41H95.95V35.05H96.32L100.9 41H105.79L100.43 34.58C101.523 34.2 102.367 33.58 102.96 32.72C103.553 31.8533 103.85 30.8167 103.85 29.61C103.85 28.53 103.617 27.61 103.15 26.85C102.683 26.0833 102.027 25.5 101.18 25.1C100.34 24.7 99.3467 24.5 98.2 24.5H92.1V41ZM95.95 31.85V27.57H96.96C97.8733 27.57 98.5733 27.7567 99.06 28.13C99.5467 28.4967 99.79 29.0267 99.79 29.72C99.79 30.4067 99.5467 30.9333 99.06 31.3C98.58 31.6667 97.88 31.85 96.96 31.85H95.95ZM111.65 41.32C112.75 41.32 113.747 41.0833 114.64 40.61C115.54 40.13 116.23 39.4733 116.71 38.64L114.09 37.33C113.723 37.73 113.37 38.0133 113.03 38.18C112.697 38.3467 112.307 38.43 111.86 38.43C111.133 38.43 110.557 38.2467 110.13 37.88C109.71 37.5067 109.5 37.0067 109.5 36.38H116.87C116.89 36.16 116.9 36.0133 116.9 35.94C116.907 35.8667 116.91 35.7867 116.91 35.7C116.91 34.66 116.683 33.7467 116.23 32.96C115.777 32.1667 115.147 31.55 114.34 31.11C113.54 30.6633 112.607 30.44 111.54 30.44C110.453 30.44 109.47 30.68 108.59 31.16C107.717 31.64 107.023 32.29 106.51 33.11C105.997 33.93 105.74 34.85 105.74 35.87C105.74 36.9033 106 37.8333 106.52 38.66C107.04 39.48 107.743 40.13 108.63 40.61C109.523 41.0833 110.53 41.32 111.65 41.32ZM109.61 34.54C109.643 34.06 109.823 33.6867 110.15 33.42C110.477 33.1467 110.913 33.01 111.46 33.01C112.54 33.01 113.163 33.52 113.33 34.54H109.61ZM122.365 41.32C123.879 41.32 125.049 41.0167 125.875 40.41C126.702 39.8033 127.115 38.93 127.115 37.79C127.115 37.1833 127.005 36.6967 126.785 36.33C126.565 35.9567 126.265 35.6567 125.885 35.43C125.505 35.2033 125.075 35.0067 124.595 34.84C124.315 34.74 124.005 34.6267 123.665 34.5C123.332 34.3667 123.042 34.22 122.795 34.06C122.555 33.9 122.435 33.7233 122.435 33.53C122.435 33.35 122.525 33.2 122.705 33.08C122.892 32.96 123.142 32.9 123.455 32.9C124.062 32.9 124.835 33.1333 125.775 33.6L126.955 31.21C125.542 30.71 124.365 30.46 123.425 30.46C122.552 30.46 121.779 30.6067 121.105 30.9C120.432 31.1867 119.905 31.5833 119.525 32.09C119.145 32.5967 118.955 33.1833 118.955 33.85C118.955 34.3767 119.069 34.81 119.295 35.15C119.529 35.49 119.829 35.77 120.195 35.99C120.562 36.21 120.952 36.41 121.365 36.59C122.045 36.8767 122.535 37.0933 122.835 37.24C123.135 37.38 123.285 37.6067 123.285 37.92C123.285 38.4 122.982 38.64 122.375 38.64C121.542 38.64 120.655 38.2567 119.715 37.49L118.235 39.98C119.222 40.8733 120.599 41.32 122.365 41.32ZM134.537 41.32C135.204 41.32 135.834 41.2267 136.427 41.04C137.02 40.8533 137.5 40.6267 137.867 40.36L136.657 37.9C136.484 38.0267 136.26 38.1333 135.987 38.22C135.72 38.3 135.43 38.34 135.117 38.34C134.35 38.34 133.737 38.1 133.277 37.62C132.824 37.1333 132.597 36.5533 132.597 35.88C132.597 35.4933 132.687 35.1133 132.867 34.74C133.054 34.36 133.334 34.0467 133.707 33.8C134.08 33.5467 134.544 33.42 135.097 33.42C135.73 33.42 136.25 33.5667 136.657 33.86L137.867 31.4C137.514 31.1267 137.03 30.9 136.417 30.72C135.81 30.5333 135.177 30.44 134.517 30.44C133.69 30.44 132.927 30.59 132.227 30.89C131.527 31.1833 130.917 31.5867 130.397 32.1C129.877 32.6133 129.47 33.1967 129.177 33.85C128.89 34.5033 128.747 35.1833 128.747 35.89C128.747 36.6367 128.9 37.34 129.207 38C129.514 38.6533 129.934 39.23 130.467 39.73C131 40.23 131.617 40.62 132.317 40.9C133.017 41.18 133.757 41.32 134.537 41.32ZM145.428 41.32C147.415 41.32 148.848 40.9433 149.728 40.19C150.608 39.4367 151.048 38.2133 151.048 36.52V30.76H147.398V35.62C147.398 36.6267 147.248 37.3367 146.948 37.75C146.655 38.1567 146.148 38.36 145.428 38.36C144.702 38.36 144.192 38.1567 143.898 37.75C143.605 37.3367 143.458 36.6267 143.458 35.62V30.76H139.808V36.52C139.808 38.2133 140.248 39.4367 141.128 40.19C142.008 40.9433 143.442 41.32 145.428 41.32ZM159.111 41.32C160.211 41.32 161.208 41.0833 162.101 40.61C163.001 40.13 163.691 39.4733 164.171 38.64L161.551 37.33C161.184 37.73 160.831 38.0133 160.491 38.18C160.158 38.3467 159.768 38.43 159.321 38.43C158.594 38.43 158.018 38.2467 157.591 37.88C157.171 37.5067 156.961 37.0067 156.961 36.38H164.331C164.351 36.16 164.361 36.0133 164.361 35.94C164.368 35.8667 164.371 35.7867 164.371 35.7C164.371 34.66 164.144 33.7467 163.691 32.96C163.238 32.1667 162.608 31.55 161.801 31.11C161.001 30.6633 160.068 30.44 159.001 30.44C157.914 30.44 156.931 30.68 156.051 31.16C155.178 31.64 154.484 32.29 153.971 33.11C153.458 33.93 153.201 34.85 153.201 35.87C153.201 36.9033 153.461 37.8333 153.981 38.66C154.501 39.48 155.204 40.13 156.091 40.61C156.984 41.0833 157.991 41.32 159.111 41.32ZM157.071 34.54C157.104 34.06 157.284 33.6867 157.611 33.42C157.938 33.1467 158.374 33.01 158.921 33.01C160.001 33.01 160.624 33.52 160.791 34.54H157.071Z" fill="black"/>
<path d="M44.5699 31.9637C43.9331 29.6697 41.8981 28.0664 39.6207 28.0664C38.3471 28.0664 37.1196 28.4886 36.1243 29.2288C35.129 28.4886 33.9015 28.0664 32.6279 28.0664C30.3522 28.0664 28.3206 29.6612 27.6856 31.9466C27.1802 33.7671 26.9019 38.5465 35.2212 43.5685L36.1243 44.1138L37.0257 43.5685C45.3501 38.5481 45.0753 33.7808 44.5699 31.9637Z" fill="url(#paint0_linear_67_5795)"/>
<path d="M37.8724 19.4919V5.284C37.2907 5.24981 36.7142 5.19531 36.1242 5.19531C35.5341 5.19531 34.9577 5.24981 34.376 5.284V19.4919C34.9575 19.4263 35.5256 19.315 36.1242 19.315C36.7227 19.315 37.2908 19.4263 37.8724 19.4919Z" fill="black"/>
<path d="M51.6816 33.3184C51.7471 33.9007 51.8583 34.4694 51.8583 35.0687C51.8583 35.6681 51.7471 36.2368 51.6816 36.8191H65.8718C65.906 36.2367 65.9604 35.6595 65.9604 35.0687C65.9604 34.4779 65.906 33.9008 65.8718 33.3184H51.6816Z" fill="black"/>
<path d="M41.3691 5.6875V20.2824C45.812 21.8687 49.3074 25.3685 50.8918 29.8169H65.4684C63.2862 17.6168 53.554 7.87243 41.3691 5.6875Z" fill="black"/>
<path d="M30.8795 20.2824V5.6875C18.6947 7.87243 8.96248 17.6168 6.78027 29.8169H21.3569C22.9412 25.3685 26.4367 21.8687 30.8795 20.2824Z" fill="black"/>
<path d="M20.5673 36.8191C20.5018 36.2368 20.3906 35.6681 20.3906 35.0687C20.3906 34.4694 20.5018 33.9007 20.5673 33.3184H6.37715C6.343 33.9008 6.28857 34.4779 6.28857 35.0687C6.28857 35.6595 6.343 36.2367 6.37715 36.8191H20.5673Z" fill="black"/>
<path d="M50.8918 40.3193C49.3074 44.7677 45.812 48.2676 41.3691 49.8539V64.4487C53.554 62.2638 63.2862 52.5194 65.4684 40.3193H50.8918Z" fill="black"/>
<path d="M37.8724 50.6445C37.2908 50.7101 36.7227 50.8214 36.1242 50.8214C35.5256 50.8214 34.9575 50.7101 34.376 50.6445V64.8524C34.9577 64.8866 35.5341 64.9411 36.1242 64.9411C36.7142 64.9411 37.2907 64.8866 37.8724 64.8524V50.6445Z" fill="black"/>
<path d="M30.8795 64.4487V49.8539C26.4367 48.2676 22.9412 44.7677 21.3569 40.3193H6.78027C8.96248 52.5194 18.6947 62.2638 30.8795 64.4487Z" fill="black"/>
<defs>
<linearGradient id="paint0_linear_67_5795" x1="27.4741" y1="36.0901" x2="44.7809" y2="36.0901" gradientUnits="userSpaceOnUse">
<stop stop-color="#6A11CB"/>
<stop offset="1" stop-color="#2575FC"/>
</linearGradient>
</defs>
</svg>
