<svg width="92" height="127" viewBox="0 0 92 127" fill="none" xmlns="http://www.w3.org/2000/svg">
<path d="M6.31 24H10.545V17.455H10.952L15.99 24H21.369L15.473 16.938C16.6757 16.52 17.6033 15.838 18.256 14.892C18.9087 13.9387 19.235 12.7983 19.235 11.471C19.235 10.283 18.9783 9.271 18.465 8.435C17.9517 7.59167 17.2293 6.95 16.298 6.51C15.374 6.07 14.2813 5.85 13.02 5.85H6.31V24ZM10.545 13.935V9.227H11.656C12.6607 9.227 13.4307 9.43233 13.966 9.843C14.5013 10.2463 14.769 10.8293 14.769 11.592C14.769 12.3473 14.5013 12.9267 13.966 13.33C13.438 13.7333 12.668 13.935 11.656 13.935H10.545ZM27.815 24.352C29.025 24.352 30.1213 24.0917 31.104 23.571C32.094 23.043 32.853 22.3207 33.381 21.404L30.499 19.963C30.0957 20.403 29.707 20.7147 29.333 20.898C28.9663 21.0813 28.5373 21.173 28.046 21.173C27.2467 21.173 26.6123 20.9713 26.143 20.568C25.681 20.1573 25.45 19.6073 25.45 18.918H33.557C33.579 18.676 33.59 18.5147 33.59 18.434C33.5973 18.3533 33.601 18.2653 33.601 18.17C33.601 17.026 33.3517 16.0213 32.853 15.156C32.3543 14.2833 31.6613 13.605 30.774 13.121C29.894 12.6297 28.8673 12.384 27.694 12.384C26.4987 12.384 25.417 12.648 24.449 13.176C23.4883 13.704 22.7257 14.419 22.161 15.321C21.5963 16.223 21.314 17.235 21.314 18.357C21.314 19.4937 21.6 20.5167 22.172 21.426C22.744 22.328 23.5177 23.043 24.493 23.571C25.4757 24.0917 26.583 24.352 27.815 24.352ZM25.571 16.894C25.6077 16.366 25.8057 15.9553 26.165 15.662C26.5243 15.3613 27.0047 15.211 27.606 15.211C28.794 15.211 29.4797 15.772 29.663 16.894H25.571ZM39.6018 24.352C41.2665 24.352 42.5535 24.0183 43.4628 23.351C44.3722 22.6837 44.8268 21.723 44.8268 20.469C44.8268 19.8017 44.7058 19.2663 44.4638 18.863C44.2218 18.4523 43.8918 18.1223 43.4738 17.873C43.0558 17.6237 42.5828 17.4073 42.0548 17.224C41.7468 17.114 41.4058 16.9893 41.0318 16.85C40.6652 16.7033 40.3462 16.542 40.0748 16.366C39.8108 16.19 39.6788 15.9957 39.6788 15.783C39.6788 15.585 39.7778 15.42 39.9758 15.288C40.1812 15.156 40.4562 15.09 40.8008 15.09C41.4682 15.09 42.3188 15.3467 43.3528 15.86L44.6508 13.231C43.0962 12.681 41.8018 12.406 40.7678 12.406C39.8072 12.406 38.9565 12.5673 38.2158 12.89C37.4752 13.2053 36.8958 13.6417 36.4778 14.199C36.0598 14.7563 35.8508 15.4017 35.8508 16.135C35.8508 16.7143 35.9755 17.191 36.2248 17.565C36.4815 17.939 36.8115 18.247 37.2148 18.489C37.6182 18.731 38.0472 18.951 38.5018 19.149C39.2498 19.4643 39.7888 19.7027 40.1188 19.864C40.4488 20.018 40.6138 20.2673 40.6138 20.612C40.6138 21.14 40.2802 21.404 39.6128 21.404C38.6962 21.404 37.7208 20.9823 36.6868 20.139L35.0588 22.878C36.1442 23.8607 37.6585 24.352 39.6018 24.352ZM52.9906 24.352C53.7239 24.352 54.4169 24.2493 55.0696 24.044C55.7222 23.8387 56.2502 23.5893 56.6536 23.296L55.3226 20.59C55.1319 20.7293 54.8862 20.8467 54.5856 20.942C54.2922 21.03 53.9732 21.074 53.6286 21.074C52.7852 21.074 52.1106 20.81 51.6046 20.282C51.1059 19.7467 50.8566 19.1087 50.8566 18.368C50.8566 17.9427 50.9556 17.5247 51.1536 17.114C51.3589 16.696 51.6669 16.3513 52.0776 16.08C52.4882 15.8013 52.9979 15.662 53.6066 15.662C54.3032 15.662 54.8752 15.8233 55.3226 16.146L56.6536 13.44C56.2649 13.1393 55.7332 12.89 55.0586 12.692C54.3912 12.4867 53.6946 12.384 52.9686 12.384C52.0592 12.384 51.2196 12.549 50.4496 12.879C49.6796 13.2017 49.0086 13.6453 48.4366 14.21C47.8646 14.7747 47.4172 15.4163 47.0946 16.135C46.7792 16.8537 46.6216 17.6017 46.6216 18.379C46.6216 19.2003 46.7902 19.974 47.1276 20.7C47.4649 21.4187 47.9269 22.053 48.5136 22.603C49.1002 23.153 49.7786 23.582 50.5486 23.89C51.3186 24.198 52.1326 24.352 52.9906 24.352ZM64.9713 24.352C67.1566 24.352 68.7333 23.9377 69.7013 23.109C70.6693 22.2803 71.1533 20.9347 71.1533 19.072V12.736H67.1383V18.082C67.1383 19.1893 66.9733 19.9703 66.6433 20.425C66.3206 20.8723 65.7633 21.096 64.9713 21.096C64.1719 21.096 63.6109 20.8723 63.2883 20.425C62.9656 19.9703 62.8043 19.1893 62.8043 18.082V12.736H58.7893V19.072C58.7893 20.9347 59.2733 22.2803 60.2413 23.109C61.2093 23.9377 62.7859 24.352 64.9713 24.352ZM80.022 24.352C81.232 24.352 82.3284 24.0917 83.311 23.571C84.301 23.043 85.06 22.3207 85.588 21.404L82.706 19.963C82.3027 20.403 81.914 20.7147 81.54 20.898C81.1734 21.0813 80.7444 21.173 80.253 21.173C79.4537 21.173 78.8194 20.9713 78.35 20.568C77.888 20.1573 77.657 19.6073 77.657 18.918H85.764C85.786 18.676 85.797 18.5147 85.797 18.434C85.8044 18.3533 85.808 18.2653 85.808 18.17C85.808 17.026 85.5587 16.0213 85.06 15.156C84.5614 14.2833 83.8684 13.605 82.981 13.121C82.101 12.6297 81.0744 12.384 79.901 12.384C78.7057 12.384 77.624 12.648 76.656 13.176C75.6954 13.704 74.9327 14.419 74.368 15.321C73.8034 16.223 73.521 17.235 73.521 18.357C73.521 19.4937 73.807 20.5167 74.379 21.426C74.951 22.328 75.7247 23.043 76.7 23.571C77.6827 24.0917 78.79 24.352 80.022 24.352ZM77.778 16.894C77.8147 16.366 78.0127 15.9553 78.372 15.662C78.7314 15.3613 79.2117 15.211 79.813 15.211C81.001 15.211 81.6867 15.772 81.87 16.894H77.778Z" fill="black"/>
<path d="M58.0131 77.5534C57.1842 74.5713 54.5354 72.4869 51.571 72.4869C49.9132 72.4869 48.3155 73.0358 47.02 73.998C45.7245 73.0358 44.1268 72.4869 42.4691 72.4869C39.507 72.4869 36.8626 74.5602 36.0359 77.5312C35.3782 79.8979 35.0159 86.111 45.8445 92.6397L47.02 93.3486L48.1933 92.6397C59.0285 86.1132 58.6708 79.9156 58.0131 77.5534Z" fill="url(#paint0_linear_30_10778)"/>
<path d="M49.2956 61.3395V42.8692C48.5385 42.8247 47.7882 42.7539 47.0201 42.7539C46.2521 42.7539 45.5018 42.8247 44.7446 42.8692V61.3395C45.5016 61.2542 46.241 61.1095 47.0201 61.1095C47.7992 61.1095 48.5386 61.2542 49.2956 61.3395Z" fill="black"/>
<path d="M67.2695 79.3134C67.3548 80.0703 67.4995 80.8097 67.4995 81.5888C67.4995 82.368 67.3548 83.1074 67.2695 83.8643H85.7398C85.7843 83.1072 85.8551 82.3569 85.8551 81.5888C85.8551 80.8208 85.7843 80.0705 85.7398 79.3134H67.2695Z" fill="black"/>
<path d="M53.8467 43.3943V62.3676C59.6296 64.4298 64.1794 68.9795 66.2416 74.7625H85.2149C82.3744 58.9023 69.7068 46.2347 53.8467 43.3943Z" fill="black"/>
<path d="M40.1934 62.3676V43.3943C24.3332 46.2347 11.6656 58.9023 8.8252 74.7625H27.7985C29.8607 68.9795 34.4105 64.4298 40.1934 62.3676Z" fill="black"/>
<path d="M26.7706 83.8643C26.6854 83.1074 26.5406 82.368 26.5406 81.5888C26.5406 80.8097 26.6854 80.0703 26.7706 79.3134H8.30035C8.2559 80.0705 8.18506 80.8208 8.18506 81.5888C8.18506 82.3569 8.2559 83.1072 8.30035 83.8643H26.7706Z" fill="black"/>
<path d="M66.2416 88.4153C64.1794 94.1982 59.6296 98.748 53.8467 100.81V119.783C69.7068 116.943 82.3744 104.275 85.2149 88.4153H66.2416Z" fill="black"/>
<path d="M49.2956 101.838C48.5386 101.923 47.7992 102.068 47.0201 102.068C46.241 102.068 45.5016 101.923 44.7446 101.838V120.308C45.5018 120.353 46.2521 120.424 47.0201 120.424C47.7882 120.424 48.5385 120.353 49.2956 120.308V101.838Z" fill="black"/>
<path d="M40.1934 119.783V100.81C34.4105 98.748 29.8607 94.1982 27.7985 88.4153H8.8252C11.6656 104.275 24.3332 116.943 40.1934 119.783Z" fill="black"/>
<defs>
<linearGradient id="paint0_linear_30_10778" x1="35.7607" y1="82.9178" x2="58.2876" y2="82.9178" gradientUnits="userSpaceOnUse">
<stop stop-color="#6A11CB"/>
<stop offset="1" stop-color="#2575FC"/>
</linearGradient>
</defs>
</svg>
