<svg width="136" height="70" viewBox="0 0 136 70" fill="none" xmlns="http://www.w3.org/2000/svg">
<path d="M91.9 42C91.7667 42 91.6467 41.9533 91.54 41.86C91.4467 41.7533 91.4 41.6333 91.4 41.5V28.5C91.4 28.3533 91.4467 28.2333 91.54 28.14C91.6467 28.0467 91.7667 28 91.9 28H94.06C94.38 28 94.6133 28.1467 94.76 28.44L98.28 34.74L101.8 28.44C101.947 28.1467 102.18 28 102.5 28H104.64C104.787 28 104.907 28.0467 105 28.14C105.107 28.2333 105.16 28.3533 105.16 28.5V41.5C105.16 41.6467 105.107 41.7667 105 41.86C104.907 41.9533 104.787 42 104.64 42H102.26C102.113 42 101.987 41.9533 101.88 41.86C101.787 41.7667 101.74 41.6467 101.74 41.5V34L99.5 38.18C99.3267 38.4867 99.0933 38.64 98.8 38.64H97.76C97.5867 38.64 97.4467 38.6 97.34 38.52C97.2333 38.44 97.14 38.3267 97.06 38.18L94.8 34V41.5C94.8 41.6333 94.7533 41.7533 94.66 41.86C94.5667 41.9533 94.4467 42 94.3 42H91.9ZM112.563 42C112.136 42 111.863 41.8 111.743 41.4L107.663 28.6L107.623 28.42C107.623 28.3133 107.663 28.22 107.743 28.14C107.836 28.0467 107.943 28 108.063 28H110.543C110.729 28 110.883 28.0533 111.003 28.16C111.136 28.2667 111.223 28.3867 111.263 28.52L114.103 37.76L116.923 28.52C116.963 28.3867 117.043 28.2667 117.163 28.16C117.296 28.0533 117.456 28 117.643 28H120.143C120.249 28 120.343 28.0467 120.423 28.14C120.516 28.22 120.563 28.3133 120.563 28.42L120.523 28.6L116.443 41.4C116.323 41.8 116.049 42 115.623 42H112.563ZM123.53 42C123.396 42 123.276 41.9533 123.17 41.86C123.076 41.7533 123.03 41.6333 123.03 41.5V28.5C123.03 28.3533 123.076 28.2333 123.17 28.14C123.276 28.0467 123.396 28 123.53 28H129.13C130.836 28 132.176 28.3933 133.15 29.18C134.136 29.9667 134.63 31.1133 134.63 32.62C134.63 34.1133 134.143 35.24 133.17 36C132.196 36.7467 130.85 37.12 129.13 37.12H126.75V41.5C126.75 41.6467 126.696 41.7667 126.59 41.86C126.496 41.9533 126.376 42 126.23 42H123.53ZM129.03 34.36C129.616 34.36 130.076 34.2133 130.41 33.92C130.743 33.6133 130.91 33.1667 130.91 32.58C130.91 32.0333 130.75 31.6 130.43 31.28C130.123 30.9467 129.656 30.78 129.03 30.78H126.69V34.36H129.03Z" fill="black"/>
<path d="M63.2553 43.3168L57.0739 34.1808L63.2553 25.0447C63.5442 24.609 63.6144 24.065 63.4462 23.5702C63.2765 23.0754 62.8878 22.687 62.3931 22.5233L42.2172 15.8122C41.4955 15.568 40.715 15.8433 40.297 16.4724L35 24.4451L29.703 16.4724C29.2818 15.84 28.4947 15.5663 27.7827 15.8122L7.6069 22.5233C7.1122 22.6871 6.72351 23.0755 6.55375 23.5702C6.38554 24.065 6.45576 24.609 6.7448 25.0448L12.9262 34.1809L6.74491 43.3168C6.45588 43.7526 6.38565 44.2966 6.55386 44.7915C6.72362 45.2863 7.11232 45.6747 7.60701 45.8384L27.7828 52.5495C28.4929 52.7891 29.2828 52.5217 29.7031 51.8893L35.0001 43.9166L40.2971 51.8893C40.7178 52.5223 41.5081 52.789 42.2174 52.5495L62.3932 45.8384C62.8879 45.6745 63.2766 45.2862 63.4463 44.7915C63.6146 44.2966 63.5443 43.7527 63.2553 43.3168ZM35.0001 39.1241L20.2213 34.1809L35.0001 29.2377L49.7789 34.1809L35.0001 39.1241Z" fill="black"/>
<path d="M43.64 55.7654C41.4427 56.5025 38.9583 55.7031 37.6252 53.7027L34.9999 49.7651L32.3743 53.7027C31.0439 55.6993 28.5624 56.506 26.351 55.7619L12.3047 51.0807V61.2714C12.3047 62.0231 12.7855 62.6897 13.4981 62.9266L34.4372 69.9056C34.5003 69.9277 34.5634 69.9448 34.6265 69.9584C34.6265 69.9584 34.6282 69.9584 34.6282 69.9601H34.63C34.7527 69.9857 34.8772 69.9994 34.9999 69.9994C35.1312 69.9994 35.2608 69.984 35.3903 69.955C35.4483 69.9414 35.5045 69.926 35.5608 69.9073L56.5017 62.9268C57.2142 62.6897 57.695 62.0231 57.695 61.2714V51.081L43.64 55.7654Z" fill="black"/>
<path d="M39.6686 13.1199C39.1368 12.5881 39.127 11.7372 39.6468 11.2175L45.2883 5.576C45.808 5.05629 46.6588 5.06607 47.1906 5.59786C47.7224 6.12966 47.7322 6.98053 47.2125 7.50024L41.571 13.1418C41.0513 13.6615 40.2004 13.6517 39.6686 13.1199Z" fill="url(#paint0_linear_67_5756)"/>
<path d="M33.618 9.84314L33.618 1.87728C33.618 1.144 34.212 0.549958 34.9453 0.549962C35.6786 0.549965 36.2726 1.14402 36.2727 1.8773L36.2727 9.84303C36.2727 10.5763 35.6786 11.1704 34.9454 11.1704C34.212 11.1704 33.618 10.5764 33.618 9.84314Z" fill="url(#paint1_linear_67_5756)"/>
<path d="M28.3196 13.1418L22.6781 7.50024C22.1584 6.98053 22.1682 6.12966 22.7 5.59786C23.2318 5.06607 24.0827 5.05629 24.6024 5.576L30.2439 11.2175C30.7636 11.7372 30.7538 12.5881 30.222 13.1199C29.6902 13.6517 28.8393 13.6615 28.3196 13.1418Z" fill="url(#paint2_linear_67_5756)"/>
<defs>
<linearGradient id="paint0_linear_67_5756" x1="42.4675" y1="8.39676" x2="44.3917" y2="10.321" gradientUnits="userSpaceOnUse">
<stop stop-color="#6A11CB"/>
<stop offset="1" stop-color="#2575FC"/>
</linearGradient>
<linearGradient id="paint1_linear_67_5756" x1="32.0152" y1="2.93009" x2="37.8754" y2="8.79027" gradientUnits="userSpaceOnUse">
<stop stop-color="#6A11CB"/>
<stop offset="1" stop-color="#2575FC"/>
</linearGradient>
<linearGradient id="paint2_linear_67_5756" x1="22.7" y1="5.59786" x2="30.222" y2="13.1199" gradientUnits="userSpaceOnUse">
<stop stop-color="#6A11CB"/>
<stop offset="1" stop-color="#2575FC"/>
</linearGradient>
</defs>
</svg>
