<svg width="91" height="141" viewBox="0 0 91 141" fill="none" xmlns="http://www.w3.org/2000/svg">
<path d="M19.375 29C19.2083 29 19.0583 28.9417 18.925 28.825C18.8083 28.6917 18.75 28.5417 18.75 28.375V12.125C18.75 11.9417 18.8083 11.7917 18.925 11.675C19.0583 11.5583 19.2083 11.5 19.375 11.5H22.075C22.475 11.5 22.7667 11.6833 22.95 12.05L27.35 19.925L31.75 12.05C31.9333 11.6833 32.225 11.5 32.625 11.5H35.3C35.4833 11.5 35.6333 11.5583 35.75 11.675C35.8833 11.7917 35.95 11.9417 35.95 12.125V28.375C35.95 28.5583 35.8833 28.7083 35.75 28.825C35.6333 28.9417 35.4833 29 35.3 29H32.325C32.1417 29 31.9833 28.9417 31.85 28.825C31.7333 28.7083 31.675 28.5583 31.675 28.375V19L28.875 24.225C28.6583 24.6083 28.3667 24.8 28 24.8H26.7C26.4833 24.8 26.3083 24.75 26.175 24.65C26.0417 24.55 25.925 24.4083 25.825 24.225L23 19V28.375C23 28.5417 22.9417 28.6917 22.825 28.825C22.7083 28.9417 22.5583 29 22.375 29H19.375ZM45.2031 29C44.6698 29 44.3281 28.75 44.1781 28.25L39.0781 12.25L39.0281 12.025C39.0281 11.8917 39.0781 11.775 39.1781 11.675C39.2948 11.5583 39.4281 11.5 39.5781 11.5H42.6781C42.9115 11.5 43.1031 11.5667 43.2531 11.7C43.4198 11.8333 43.5281 11.9833 43.5781 12.15L47.1281 23.7L50.6531 12.15C50.7031 11.9833 50.8031 11.8333 50.9531 11.7C51.1198 11.5667 51.3198 11.5 51.5531 11.5H54.6781C54.8115 11.5 54.9281 11.5583 55.0281 11.675C55.1448 11.775 55.2031 11.8917 55.2031 12.025L55.1531 12.25L50.0531 28.25C49.9031 28.75 49.5615 29 49.0281 29H45.2031ZM58.9121 29C58.7454 29 58.5954 28.9417 58.4621 28.825C58.3454 28.6917 58.2871 28.5417 58.2871 28.375V12.125C58.2871 11.9417 58.3454 11.7917 58.4621 11.675C58.5954 11.5583 58.7454 11.5 58.9121 11.5H65.9121C68.0454 11.5 69.7204 11.9917 70.9371 12.975C72.1704 13.9583 72.7871 15.3917 72.7871 17.275C72.7871 19.1417 72.1788 20.55 70.9621 21.5C69.7454 22.4333 68.0621 22.9 65.9121 22.9H62.9371V28.375C62.9371 28.5583 62.8704 28.7083 62.7371 28.825C62.6204 28.9417 62.4704 29 62.2871 29H58.9121ZM65.7871 19.45C66.5204 19.45 67.0954 19.2667 67.5121 18.9C67.9288 18.5167 68.1371 17.9583 68.1371 17.225C68.1371 16.5417 67.9371 16 67.5371 15.6C67.1538 15.1833 66.5704 14.975 65.7871 14.975H62.8621V19.45H65.7871Z" fill="black"/>
<path d="M82.2317 106.312L74.1959 94.4349L82.2317 82.558C82.6073 81.9915 82.6986 81.2844 82.4799 80.6411C82.2592 79.9978 81.7539 79.493 81.1108 79.2801L54.8822 70.5557C53.9439 70.2382 52.9293 70.5961 52.3859 71.414L45.4998 81.7785L38.6137 71.414C38.0661 70.5919 37.0429 70.2361 36.1174 70.5557L9.88878 79.2801C9.24567 79.4931 8.74037 79.998 8.51967 80.6411C8.30101 81.2844 8.3923 81.9915 8.76805 82.5581L16.8038 94.435L8.76819 106.312C8.39244 106.878 8.30115 107.585 8.51982 108.229C8.74052 108.872 9.24581 109.377 9.88892 109.59L36.1175 118.314C37.0406 118.626 38.0674 118.278 38.6138 117.456L45.4999 107.091L52.386 117.456C52.9329 118.279 53.9603 118.626 54.8824 118.314L81.111 109.59C81.7541 109.377 82.2594 108.872 82.4801 108.229C82.6987 107.585 82.6074 106.878 82.2317 106.312ZM45.4999 100.861L26.2874 94.435L45.4999 88.0089L64.7124 94.435L45.4999 100.861Z" fill="black"/>
<path d="M56.732 122.495C53.8755 123.453 50.6458 122.414 48.9128 119.814L45.4999 114.695L42.0866 119.814C40.3571 122.409 37.1312 123.458 34.2563 122.491L15.9961 116.405V129.653C15.9961 130.63 16.6211 131.497 17.5475 131.805L44.7684 140.877C44.8504 140.906 44.9324 140.928 45.0144 140.946C45.0144 140.946 45.0167 140.946 45.0167 140.948H45.0189C45.1786 140.982 45.3403 140.999 45.4999 140.999C45.6706 140.999 45.839 140.979 46.0074 140.942C46.0827 140.924 46.1558 140.904 46.229 140.88L73.4522 131.805C74.3784 131.497 75.0034 130.63 75.0034 129.653V116.405L56.732 122.495Z" fill="black"/>
<path d="M51.5688 67.0557C50.8775 66.3644 50.8648 65.2583 51.5404 64.5826L58.8744 57.2487C59.55 56.573 60.6561 56.5858 61.3474 57.2771C62.0388 57.9684 62.0515 59.0746 61.3759 59.7502L54.0419 67.0842C53.3663 67.7598 52.2601 67.7471 51.5688 67.0557Z" fill="url(#paint0_linear_30_10746)"/>
<path d="M43.7032 62.7961L43.7032 52.4405C43.7032 51.4872 44.4754 50.7149 45.4287 50.715C46.382 50.715 47.1542 51.4872 47.1542 52.4405L47.1543 62.7959C47.1543 63.7492 46.382 64.5215 45.4288 64.5215C44.4754 64.5215 43.7032 63.7494 43.7032 62.7961Z" fill="url(#paint1_linear_30_10746)"/>
<path d="M36.816 67.0842L29.482 59.7502C28.8064 59.0746 28.8191 57.9684 29.5105 57.2771C30.2018 56.5858 31.3079 56.573 31.9836 57.2487L39.3175 64.5826C39.9932 65.2583 39.9804 66.3644 39.2891 67.0557C38.5978 67.7471 37.4916 67.7598 36.816 67.0842Z" fill="url(#paint2_linear_30_10746)"/>
<defs>
<linearGradient id="paint0_linear_30_10746" x1="55.2074" y1="60.9157" x2="57.7089" y2="63.4172" gradientUnits="userSpaceOnUse">
<stop stop-color="#6A11CB"/>
<stop offset="1" stop-color="#2575FC"/>
</linearGradient>
<linearGradient id="paint1_linear_30_10746" x1="41.6196" y1="53.8091" x2="49.2378" y2="61.4274" gradientUnits="userSpaceOnUse">
<stop stop-color="#6A11CB"/>
<stop offset="1" stop-color="#2575FC"/>
</linearGradient>
<linearGradient id="paint2_linear_30_10746" x1="29.5105" y1="57.2771" x2="39.2891" y2="67.0557" gradientUnits="userSpaceOnUse">
<stop stop-color="#6A11CB"/>
<stop offset="1" stop-color="#2575FC"/>
</linearGradient>
</defs>
</svg>
