<svg width="99" height="136" viewBox="0 0 99 136" fill="none" xmlns="http://www.w3.org/2000/svg">
<path d="M2.31 24H7.612C8.90267 24 10.1017 23.7727 11.209 23.318C12.3237 22.856 13.2953 22.2143 14.124 21.393C14.96 20.5717 15.609 19.611 16.071 18.511C16.533 17.411 16.764 16.223 16.764 14.947C16.764 13.671 16.5293 12.483 16.06 11.383C15.598 10.2757 14.949 9.30767 14.113 8.479C13.2843 7.65033 12.3163 7.005 11.209 6.543C10.1017 6.081 8.90267 5.85 7.612 5.85H2.31V24ZM6.545 20.205V9.645H7.117C8.09967 9.645 8.97233 9.87233 9.735 10.327C10.4977 10.7817 11.0953 11.4087 11.528 12.208C11.968 13 12.188 13.9093 12.188 14.936C12.188 15.9553 11.968 16.861 11.528 17.653C11.0953 18.445 10.4977 19.0683 9.735 19.523C8.97233 19.9777 8.09967 20.205 7.117 20.205H6.545ZM24.9322 24.352C26.1422 24.352 27.2385 24.0917 28.2212 23.571C29.2112 23.043 29.9702 22.3207 30.4982 21.404L27.6162 19.963C27.2129 20.403 26.8242 20.7147 26.4502 20.898C26.0835 21.0813 25.6545 21.173 25.1632 21.173C24.3639 21.173 23.7295 20.9713 23.2602 20.568C22.7982 20.1573 22.5672 19.6073 22.5672 18.918H30.6742C30.6962 18.676 30.7072 18.5147 30.7072 18.434C30.7145 18.3533 30.7182 18.2653 30.7182 18.17C30.7182 17.026 30.4689 16.0213 29.9702 15.156C29.4715 14.2833 28.7785 13.605 27.8912 13.121C27.0112 12.6297 25.9845 12.384 24.8112 12.384C23.6159 12.384 22.5342 12.648 21.5662 13.176C20.6055 13.704 19.8429 14.419 19.2782 15.321C18.7135 16.223 18.4312 17.235 18.4312 18.357C18.4312 19.4937 18.7172 20.5167 19.2892 21.426C19.8612 22.328 20.6349 23.043 21.6102 23.571C22.5929 24.0917 23.7002 24.352 24.9322 24.352ZM22.6882 16.894C22.7249 16.366 22.9229 15.9553 23.2822 15.662C23.6415 15.3613 24.1219 15.211 24.7232 15.211C25.9112 15.211 26.5969 15.772 26.7802 16.894H22.6882ZM37.1815 24H39.8875L45.9705 12.736H41.2295L38.5345 18.753L35.8505 12.736H31.1095L37.1815 24ZM52.7545 24.352C53.9645 24.352 55.0608 24.0917 56.0435 23.571C57.0335 23.043 57.7925 22.3207 58.3205 21.404L55.4385 19.963C55.0351 20.403 54.6465 20.7147 54.2725 20.898C53.9058 21.0813 53.4768 21.173 52.9855 21.173C52.1861 21.173 51.5518 20.9713 51.0825 20.568C50.6205 20.1573 50.3895 19.6073 50.3895 18.918H58.4965C58.5185 18.676 58.5295 18.5147 58.5295 18.434C58.5368 18.3533 58.5405 18.2653 58.5405 18.17C58.5405 17.026 58.2911 16.0213 57.7925 15.156C57.2938 14.2833 56.6008 13.605 55.7135 13.121C54.8335 12.6297 53.8068 12.384 52.6335 12.384C51.4381 12.384 50.3565 12.648 49.3885 13.176C48.4278 13.704 47.6651 14.419 47.1005 15.321C46.5358 16.223 46.2535 17.235 46.2535 18.357C46.2535 19.4937 46.5395 20.5167 47.1115 21.426C47.6835 22.328 48.4571 23.043 49.4325 23.571C50.4151 24.0917 51.5225 24.352 52.7545 24.352ZM50.5105 16.894C50.5471 16.366 50.7451 15.9553 51.1045 15.662C51.4638 15.3613 51.9441 15.211 52.5455 15.211C53.7335 15.211 54.4191 15.772 54.6025 16.894H50.5105ZM61.2953 24H65.3103V5.08H61.2953V24ZM74.7172 24.352C75.9858 24.352 77.1298 24.099 78.1492 23.593C79.1685 23.0797 79.9752 22.3757 80.5692 21.481C81.1632 20.579 81.4602 19.5413 81.4602 18.368C81.4602 17.1947 81.1632 16.1607 80.5692 15.266C79.9752 14.364 79.1685 13.66 78.1492 13.154C77.1298 12.6407 75.9858 12.384 74.7172 12.384C73.4485 12.384 72.3045 12.6407 71.2852 13.154C70.2658 13.66 69.4592 14.364 68.8652 15.266C68.2712 16.1607 67.9742 17.1947 67.9742 18.368C67.9742 19.5413 68.2712 20.579 68.8652 21.481C69.4592 22.3757 70.2658 23.0797 71.2852 23.593C72.3045 24.099 73.4485 24.352 74.7172 24.352ZM74.7172 20.942C74.0132 20.942 73.4118 20.7037 72.9132 20.227C72.4218 19.743 72.1762 19.1233 72.1762 18.368C72.1762 17.6053 72.4218 16.9857 72.9132 16.509C73.4118 16.0323 74.0132 15.794 74.7172 15.794C75.4212 15.794 76.0188 16.0323 76.5102 16.509C77.0088 16.9857 77.2582 17.6053 77.2582 18.368C77.2582 19.1233 77.0088 19.743 76.5102 20.227C76.0188 20.7037 75.4212 20.942 74.7172 20.942ZM84.0687 29.72H88.0837V22.834C89.1324 23.846 90.368 24.352 91.7907 24.352C92.8394 24.352 93.7817 24.0917 94.6177 23.571C95.4537 23.043 96.1137 22.328 96.5977 21.426C97.0817 20.5167 97.3237 19.4973 97.3237 18.368C97.3237 17.224 97.078 16.201 96.5867 15.299C96.1027 14.397 95.4354 13.6857 94.5847 13.165C93.7414 12.6443 92.777 12.384 91.6917 12.384C90.9877 12.384 90.324 12.505 89.7007 12.747C89.0774 12.989 88.5384 13.33 88.0837 13.77V12.736H84.0687V29.72ZM90.5587 20.953C89.818 20.953 89.2057 20.711 88.7217 20.227C88.2377 19.743 87.9957 19.127 87.9957 18.379C87.9957 17.6383 88.2377 17.0223 88.7217 16.531C89.213 16.0323 89.8217 15.783 90.5477 15.783C91.2737 15.783 91.8787 16.0323 92.3627 16.531C92.8467 17.0223 93.0887 17.642 93.0887 18.39C93.0887 19.138 92.8504 19.754 92.3737 20.238C91.9044 20.7147 91.2994 20.953 90.5587 20.953Z" fill="black"/>
<path d="M71.4362 128.713C71.8719 127.044 71.5652 125.253 70.5413 123.8L59.6309 108.325L65.7861 99.8275C66.0847 99.4152 66.5423 99.209 67 99.209C67.4577 99.209 67.9153 99.4152 68.2141 99.8275L87.4276 126.352C88.1413 127.337 87.4339 128.713 86.2135 128.713H71.4362Z" fill="black"/>
<path d="M41.1263 83.9238V76.1244H59.8145C60.6289 76.1244 61.3794 75.6843 61.7748 74.975C62.1703 74.2657 62.1488 73.3982 61.7186 72.7091L57.8046 66.4405L61.7186 60.1719C62.1489 59.4828 62.1704 58.6155 61.7748 57.906C61.3793 57.1966 60.629 56.7566 59.8145 56.7566H41.1263V54.5219C41.1263 53.2877 40.1222 52.2871 38.8837 52.2871C37.6452 52.2871 36.6411 53.2877 36.6411 54.5219V83.9238C37.9228 82.5214 39.815 82.4933 41.1263 83.9238Z" fill="url(#paint0_linear_30_10764)"/>
<path d="M26.9892 104.363L32.3418 109.352C32.7723 109.753 33.3212 109.954 33.8702 109.954C34.4193 109.954 34.9681 109.753 35.3986 109.352L39.2809 105.734L43.1625 109.352C44.0236 110.155 45.3584 110.155 46.2195 109.352L51.5713 104.363L66.9996 126.358C67.6947 127.35 66.9862 128.713 65.776 128.713H47.9436H12.7846C11.5744 128.713 10.8658 127.35 11.5609 126.358L26.9892 104.363Z" fill="black"/>
<path d="M44.6671 104.719L40.8027 101.098C39.9455 100.295 38.6167 100.295 37.7593 101.098L33.8939 104.719L29.5938 100.782L38.062 88.6486C38.3583 88.2241 38.8192 88.0117 39.2803 88.0117C39.7412 88.0117 40.2022 88.2241 40.4985 88.6486L48.9668 100.782L44.6671 104.719Z" fill="black"/>
<defs>
<linearGradient id="paint0_linear_30_10764" x1="36.6411" y1="68.1055" x2="62.0571" y2="68.1055" gradientUnits="userSpaceOnUse">
<stop stop-color="#6A11CB"/>
<stop offset="1" stop-color="#2575FC"/>
</linearGradient>
</defs>
</svg>
