<svg width="180" height="70" viewBox="0 0 180 70" fill="none" xmlns="http://www.w3.org/2000/svg">
<path d="M92.1 41H96.92C98.0933 41 99.1833 40.7933 100.19 40.38C101.203 39.96 102.087 39.3767 102.84 38.63C103.6 37.8833 104.19 37.01 104.61 36.01C105.03 35.01 105.24 33.93 105.24 32.77C105.24 31.61 105.027 30.53 104.6 29.53C104.18 28.5233 103.59 27.6433 102.83 26.89C102.077 26.1367 101.197 25.55 100.19 25.13C99.1833 24.71 98.0933 24.5 96.92 24.5H92.1V41ZM95.95 37.55V27.95H96.47C97.3633 27.95 98.1567 28.1567 98.85 28.57C99.5433 28.9833 100.087 29.5533 100.48 30.28C100.88 31 101.08 31.8267 101.08 32.76C101.08 33.6867 100.88 34.51 100.48 35.23C100.087 35.95 99.5433 36.5167 98.85 36.93C98.1567 37.3433 97.3633 37.55 96.47 37.55H95.95ZM112.666 41.32C113.766 41.32 114.762 41.0833 115.656 40.61C116.556 40.13 117.246 39.4733 117.726 38.64L115.106 37.33C114.739 37.73 114.386 38.0133 114.046 38.18C113.712 38.3467 113.322 38.43 112.876 38.43C112.149 38.43 111.572 38.2467 111.146 37.88C110.726 37.5067 110.516 37.0067 110.516 36.38H117.886C117.906 36.16 117.916 36.0133 117.916 35.94C117.922 35.8667 117.926 35.7867 117.926 35.7C117.926 34.66 117.699 33.7467 117.246 32.96C116.792 32.1667 116.162 31.55 115.356 31.11C114.556 30.6633 113.622 30.44 112.556 30.44C111.469 30.44 110.486 30.68 109.606 31.16C108.732 31.64 108.039 32.29 107.526 33.11C107.012 33.93 106.756 34.85 106.756 35.87C106.756 36.9033 107.016 37.8333 107.536 38.66C108.056 39.48 108.759 40.13 109.646 40.61C110.539 41.0833 111.546 41.32 112.666 41.32ZM110.626 34.54C110.659 34.06 110.839 33.6867 111.166 33.42C111.492 33.1467 111.929 33.01 112.476 33.01C113.556 33.01 114.179 33.52 114.346 34.54H110.626ZM123.801 41H126.261L131.791 30.76H127.481L125.031 36.23L122.591 30.76H118.281L123.801 41ZM137.959 41.32C139.059 41.32 140.055 41.0833 140.949 40.61C141.849 40.13 142.539 39.4733 143.019 38.64L140.399 37.33C140.032 37.73 139.679 38.0133 139.339 38.18C139.005 38.3467 138.615 38.43 138.169 38.43C137.442 38.43 136.865 38.2467 136.439 37.88C136.019 37.5067 135.809 37.0067 135.809 36.38H143.179C143.199 36.16 143.209 36.0133 143.209 35.94C143.215 35.8667 143.219 35.7867 143.219 35.7C143.219 34.66 142.992 33.7467 142.539 32.96C142.085 32.1667 141.455 31.55 140.649 31.11C139.849 30.6633 138.915 30.44 137.849 30.44C136.762 30.44 135.779 30.68 134.899 31.16C134.025 31.64 133.332 32.29 132.819 33.11C132.305 33.93 132.049 34.85 132.049 35.87C132.049 36.9033 132.309 37.8333 132.829 38.66C133.349 39.48 134.052 40.13 134.939 40.61C135.832 41.0833 136.839 41.32 137.959 41.32ZM135.919 34.54C135.952 34.06 136.132 33.6867 136.459 33.42C136.785 33.1467 137.222 33.01 137.769 33.01C138.849 33.01 139.472 33.52 139.639 34.54H135.919ZM145.723 41H149.373V23.8H145.723V41ZM157.925 41.32C159.078 41.32 160.118 41.09 161.045 40.63C161.971 40.1633 162.705 39.5233 163.245 38.71C163.785 37.89 164.055 36.9467 164.055 35.88C164.055 34.8133 163.785 33.8733 163.245 33.06C162.705 32.24 161.971 31.6 161.045 31.14C160.118 30.6733 159.078 30.44 157.925 30.44C156.771 30.44 155.731 30.6733 154.805 31.14C153.878 31.6 153.145 32.24 152.605 33.06C152.065 33.8733 151.795 34.8133 151.795 35.88C151.795 36.9467 152.065 37.89 152.605 38.71C153.145 39.5233 153.878 40.1633 154.805 40.63C155.731 41.09 156.771 41.32 157.925 41.32ZM157.925 38.22C157.285 38.22 156.738 38.0033 156.285 37.57C155.838 37.13 155.615 36.5667 155.615 35.88C155.615 35.1867 155.838 34.6233 156.285 34.19C156.738 33.7567 157.285 33.54 157.925 33.54C158.565 33.54 159.108 33.7567 159.555 34.19C160.008 34.6233 160.235 35.1867 160.235 35.88C160.235 36.5667 160.008 37.13 159.555 37.57C159.108 38.0033 158.565 38.22 157.925 38.22ZM166.426 46.2H170.076V39.94C171.029 40.86 172.153 41.32 173.446 41.32C174.399 41.32 175.256 41.0833 176.016 40.61C176.776 40.13 177.376 39.48 177.816 38.66C178.256 37.8333 178.476 36.9067 178.476 35.88C178.476 34.84 178.253 33.91 177.806 33.09C177.366 32.27 176.759 31.6233 175.986 31.15C175.219 30.6767 174.343 30.44 173.356 30.44C172.716 30.44 172.113 30.55 171.546 30.77C170.979 30.99 170.489 31.3 170.076 31.7V30.76H166.426V46.2ZM172.326 38.23C171.653 38.23 171.096 38.01 170.656 37.57C170.216 37.13 169.996 36.57 169.996 35.89C169.996 35.2167 170.216 34.6567 170.656 34.21C171.103 33.7567 171.656 33.53 172.316 33.53C172.976 33.53 173.526 33.7567 173.966 34.21C174.406 34.6567 174.626 35.22 174.626 35.9C174.626 36.58 174.409 37.14 173.976 37.58C173.549 38.0133 172.999 38.23 172.326 38.23Z" fill="black"/>
<path d="M51.874 64.3945C52.2091 63.111 51.9732 61.7327 51.1856 60.6157L42.793 48.7115L47.5278 42.175C47.7574 41.8578 48.1095 41.6992 48.4615 41.6992C48.8136 41.6992 49.1656 41.8578 49.3954 42.175L64.1751 62.5785C64.7241 63.3364 64.1799 64.3945 63.2412 64.3945H51.874Z" fill="black"/>
<path d="M28.559 29.9414V23.9419H42.9346C43.561 23.9419 44.1383 23.6033 44.4425 23.0577C44.7467 22.5121 44.7301 21.8447 44.3993 21.3147L41.3885 16.4927L44.3993 11.6707C44.7303 11.1407 44.7468 10.4734 44.4425 9.9277C44.1382 9.38196 43.5611 9.04354 42.9346 9.04354H28.559V7.3245C28.559 6.37514 27.7867 5.60547 26.834 5.60547C25.8813 5.60547 25.1089 6.37514 25.1089 7.3245V29.9414C26.0948 28.8627 27.5503 28.841 28.559 29.9414Z" fill="url(#paint0_linear_67_5773)"/>
<path d="M17.684 45.6641L21.8014 49.5016C22.1325 49.8102 22.5547 49.9646 22.9771 49.9646C23.3994 49.9646 23.8217 49.8102 24.1528 49.5016L27.1392 46.7182L30.125 49.5015C30.7874 50.119 31.8141 50.119 32.4765 49.5015L36.5933 45.6641L48.4613 62.5834C48.9959 63.3458 48.4509 64.3945 47.52 64.3945H33.8028H6.75735C5.82644 64.3945 5.28141 63.3458 5.81609 62.5834L17.684 45.6641Z" fill="black"/>
<path d="M31.2824 45.9374L28.3098 43.1523C27.6504 42.5346 26.6282 42.5344 25.9687 43.1522L22.9953 45.9375L19.6875 42.9094L26.2015 33.5758C26.4295 33.2493 26.784 33.0859 27.1387 33.0859C27.4932 33.0859 27.8479 33.2493 28.0758 33.5758L34.5898 42.9094L31.2824 45.9374Z" fill="black"/>
<defs>
<linearGradient id="paint0_linear_67_5773" x1="25.1089" y1="17.7734" x2="44.6597" y2="17.7734" gradientUnits="userSpaceOnUse">
<stop stop-color="#6A11CB"/>
<stop offset="1" stop-color="#2575FC"/>
</linearGradient>
</defs>
</svg>
