<svg width="170" height="70" viewBox="0 0 170 70" fill="none" xmlns="http://www.w3.org/2000/svg">
<path d="M92.1 41H101.57V37.62H95.95V24.5H92.1V41ZM107.629 41.32C108.876 41.32 109.986 40.86 110.959 39.94V41H114.609V30.76H110.959V31.7C110.553 31.3067 110.059 31 109.479 30.78C108.899 30.5533 108.283 30.44 107.629 30.44C106.643 30.44 105.766 30.68 104.999 31.16C104.239 31.6333 103.643 32.28 103.209 33.1C102.776 33.92 102.559 34.84 102.559 35.86C102.559 36.9133 102.786 37.8533 103.239 38.68C103.693 39.5 104.303 40.1467 105.069 40.62C105.836 41.0867 106.689 41.32 107.629 41.32ZM108.729 38.23C108.063 38.23 107.509 38.01 107.069 37.57C106.629 37.1233 106.409 36.56 106.409 35.88C106.409 35.2067 106.629 34.6467 107.069 34.2C107.509 33.7533 108.063 33.53 108.729 33.53C109.403 33.53 109.953 33.7533 110.379 34.2C110.813 34.64 111.029 35.2 111.029 35.88C111.029 36.56 110.813 37.1233 110.379 37.57C109.953 38.01 109.403 38.23 108.729 38.23ZM123.319 41.32C125.306 41.32 126.739 40.9433 127.619 40.19C128.499 39.4367 128.939 38.2133 128.939 36.52V30.76H125.289V35.62C125.289 36.6267 125.139 37.3367 124.839 37.75C124.546 38.1567 124.039 38.36 123.319 38.36C122.592 38.36 122.082 38.1567 121.789 37.75C121.496 37.3367 121.349 36.6267 121.349 35.62V30.76H117.699V36.52C117.699 38.2133 118.139 39.4367 119.019 40.19C119.899 40.9433 121.332 41.32 123.319 41.32ZM132.032 41H135.682V35.16C135.682 34.6067 135.855 34.1567 136.202 33.81C136.555 33.4567 137.025 33.28 137.612 33.28C138.192 33.28 138.652 33.46 138.992 33.82C139.332 34.1733 139.502 34.6567 139.502 35.27V41H143.152V34.49C143.152 33.7033 142.975 33.0067 142.622 32.4C142.275 31.7867 141.795 31.3067 141.182 30.96C140.575 30.6133 139.882 30.44 139.102 30.44C138.448 30.44 137.822 30.5633 137.222 30.81C136.628 31.0567 136.115 31.3867 135.682 31.8V30.76H132.032V41ZM151.119 41.32C151.786 41.32 152.416 41.2267 153.009 41.04C153.602 40.8533 154.082 40.6267 154.449 40.36L153.239 37.9C153.066 38.0267 152.842 38.1333 152.569 38.22C152.302 38.3 152.012 38.34 151.699 38.34C150.932 38.34 150.319 38.1 149.859 37.62C149.406 37.1333 149.179 36.5533 149.179 35.88C149.179 35.4933 149.269 35.1133 149.449 34.74C149.636 34.36 149.916 34.0467 150.289 33.8C150.662 33.5467 151.126 33.42 151.679 33.42C152.312 33.42 152.832 33.5667 153.239 33.86L154.449 31.4C154.096 31.1267 153.612 30.9 152.999 30.72C152.392 30.5333 151.759 30.44 151.099 30.44C150.272 30.44 149.509 30.59 148.809 30.89C148.109 31.1833 147.499 31.5867 146.979 32.1C146.459 32.6133 146.052 33.1967 145.759 33.85C145.472 34.5033 145.329 35.1833 145.329 35.89C145.329 36.6367 145.482 37.34 145.789 38C146.096 38.6533 146.516 39.23 147.049 39.73C147.582 40.23 148.199 40.62 148.899 40.9C149.599 41.18 150.339 41.32 151.119 41.32ZM156.66 41H160.31V35.16C160.31 34.6067 160.484 34.1533 160.83 33.8C161.184 33.4467 161.654 33.27 162.24 33.27C162.82 33.27 163.28 33.45 163.62 33.81C163.96 34.17 164.13 34.6567 164.13 35.27V41H167.78V34.49C167.78 33.7033 167.604 33.0067 167.25 32.4C166.904 31.7867 166.424 31.3067 165.81 30.96C165.204 30.6133 164.51 30.44 163.73 30.44C163.077 30.44 162.45 30.5633 161.85 30.81C161.257 31.0567 160.744 31.3867 160.31 31.8V23.8H156.66V41Z" fill="black"/>
<path d="M36.1925 41.1523C39.3599 41.1523 41.9276 38.6121 41.9276 35.4785C41.9276 32.3449 39.3599 29.8047 36.1925 29.8047C33.0252 29.8047 30.4575 32.3449 30.4575 35.4785C30.4575 38.6121 33.0252 41.1523 36.1925 41.1523Z" fill="black"/>
<path d="M64.2165 29.0896C62.8026 27.6733 60.5102 27.6733 59.0963 29.0896L44.2049 44.0059C43.7523 44.4593 43.1383 44.7141 42.4982 44.7141H29.8861C29.2459 44.7141 28.6321 44.4595 28.1794 44.0059L13.288 29.0896C11.8741 27.6733 9.58176 27.6733 8.16785 29.0896C6.75395 30.5058 6.75395 32.802 8.16785 34.2183L25.3307 51.41V64.0456L47.0538 64.1211V51.41L64.2166 34.2183C65.6304 32.802 65.6304 30.5058 64.2165 29.0896Z" fill="black"/>
<path d="M30.1947 18.4803L29.3468 23.4328C29.2371 24.0736 29.5001 24.7212 30.0252 25.1034C30.5501 25.4854 31.2463 25.536 31.8209 25.2335L36.2607 22.8952L40.7004 25.2335C40.95 25.3648 41.2224 25.4297 41.4938 25.4297C41.8473 25.4297 42.1991 25.3197 42.4961 25.1036C43.0212 24.7214 43.2842 24.0737 43.1746 23.4329L42.3267 18.4805L45.9185 14.9731C46.3833 14.5193 46.5507 13.8405 46.35 13.2221C46.1495 12.6037 45.6159 12.153 44.9737 12.0596L40.0098 11.337L37.7896 6.831C37.5023 6.24797 36.9096 5.87891 36.2606 5.87891C35.6115 5.87891 35.0188 6.24797 34.7315 6.831L32.5117 11.3369L27.5478 12.0595C26.9055 12.1529 26.3718 12.6036 26.1714 13.222C25.9708 13.8404 26.1381 14.5192 26.6029 14.9729L30.1947 18.4803Z" fill="url(#paint0_linear_67_5813)"/>
<defs>
<linearGradient id="paint0_linear_67_5813" x1="26.0879" y1="15.6543" x2="46.4336" y2="15.6543" gradientUnits="userSpaceOnUse">
<stop stop-color="#6A11CB"/>
<stop offset="1" stop-color="#2575FC"/>
</linearGradient>
</defs>
</svg>
