<svg width="92" height="127" viewBox="0 0 92 127" fill="none" xmlns="http://www.w3.org/2000/svg">
<path d="M4.31 24H14.727V20.282H8.545V5.85H4.31V24ZM21.3921 24.352C22.7635 24.352 23.9845 23.846 25.0551 22.834V24H29.0701V12.736H25.0551V13.77C24.6078 13.3373 24.0651 13 23.4271 12.758C22.7891 12.5087 22.1108 12.384 21.3921 12.384C20.3068 12.384 19.3425 12.648 18.4991 13.176C17.6631 13.6967 17.0068 14.408 16.5301 15.31C16.0535 16.212 15.8151 17.224 15.8151 18.346C15.8151 19.5047 16.0645 20.5387 16.5631 21.448C17.0618 22.35 17.7328 23.0613 18.5761 23.582C19.4195 24.0953 20.3581 24.352 21.3921 24.352ZM22.6021 20.953C21.8688 20.953 21.2601 20.711 20.7761 20.227C20.2921 19.7357 20.0501 19.116 20.0501 18.368C20.0501 17.6273 20.2921 17.0113 20.7761 16.52C21.2601 16.0287 21.8688 15.783 22.6021 15.783C23.3428 15.783 23.9478 16.0287 24.4171 16.52C24.8938 17.004 25.1321 17.62 25.1321 18.368C25.1321 19.116 24.8938 19.7357 24.4171 20.227C23.9478 20.711 23.3428 20.953 22.6021 20.953ZM38.651 24.352C40.8363 24.352 42.413 23.9377 43.381 23.109C44.349 22.2803 44.833 20.9347 44.833 19.072V12.736H40.818V18.082C40.818 19.1893 40.653 19.9703 40.323 20.425C40.0003 20.8723 39.443 21.096 38.651 21.096C37.8516 21.096 37.2906 20.8723 36.968 20.425C36.6453 19.9703 36.484 19.1893 36.484 18.082V12.736H32.469V19.072C32.469 20.9347 32.953 22.2803 33.921 23.109C34.889 23.9377 36.4656 24.352 38.651 24.352ZM48.2347 24H52.2497V17.576C52.2497 16.9673 52.4404 16.4723 52.8217 16.091C53.2104 15.7023 53.7274 15.508 54.3727 15.508C55.0107 15.508 55.5167 15.706 55.8907 16.102C56.2647 16.4907 56.4517 17.0223 56.4517 17.697V24H60.4667V16.839C60.4667 15.9737 60.2724 15.2073 59.8837 14.54C59.5024 13.8653 58.9744 13.3373 58.2997 12.956C57.6324 12.5747 56.8697 12.384 56.0117 12.384C55.2931 12.384 54.6037 12.5197 53.9437 12.791C53.2911 13.0623 52.7264 13.4253 52.2497 13.88V12.736H48.2347V24ZM69.2308 24.352C69.9641 24.352 70.6571 24.2493 71.3098 24.044C71.9625 23.8387 72.4905 23.5893 72.8938 23.296L71.5628 20.59C71.3721 20.7293 71.1265 20.8467 70.8258 20.942C70.5325 21.03 70.2135 21.074 69.8688 21.074C69.0255 21.074 68.3508 20.81 67.8448 20.282C67.3461 19.7467 67.0968 19.1087 67.0968 18.368C67.0968 17.9427 67.1958 17.5247 67.3938 17.114C67.5991 16.696 67.9071 16.3513 68.3178 16.08C68.7285 15.8013 69.2381 15.662 69.8468 15.662C70.5435 15.662 71.1155 15.8233 71.5628 16.146L72.8938 13.44C72.5051 13.1393 71.9735 12.89 71.2988 12.692C70.6315 12.4867 69.9348 12.384 69.2088 12.384C68.2995 12.384 67.4598 12.549 66.6898 12.879C65.9198 13.2017 65.2488 13.6453 64.6768 14.21C64.1048 14.7747 63.6575 15.4163 63.3348 16.135C63.0195 16.8537 62.8618 17.6017 62.8618 18.379C62.8618 19.2003 63.0305 19.974 63.3678 20.7C63.7051 21.4187 64.1671 22.053 64.7538 22.603C65.3405 23.153 66.0188 23.582 66.7888 23.89C67.5588 24.198 68.3728 24.352 69.2308 24.352ZM75.3265 24H79.3415V17.576C79.3415 16.9673 79.5322 16.4687 79.9135 16.08C80.3022 15.6913 80.8192 15.497 81.4645 15.497C82.1025 15.497 82.6085 15.695 82.9825 16.091C83.3565 16.487 83.5435 17.0223 83.5435 17.697V24H87.5585V16.839C87.5585 15.9737 87.3642 15.2073 86.9755 14.54C86.5942 13.8653 86.0662 13.3373 85.3915 12.956C84.7242 12.5747 83.9615 12.384 83.1035 12.384C82.3848 12.384 81.6955 12.5197 81.0355 12.791C80.3828 13.0623 79.8182 13.4253 79.3415 13.88V5.08H75.3265V24Z" fill="black"/>
<path d="M47.1089 89.498C51.2316 89.498 54.5737 86.1957 54.5737 82.1221C54.5737 78.0484 51.2316 74.7461 47.1089 74.7461C42.9862 74.7461 39.644 78.0484 39.644 82.1221C39.644 86.1957 42.9862 89.498 47.1089 89.498Z" fill="black"/>
<path d="M83.586 73.8164C81.7456 71.9753 78.7618 71.9753 76.9215 73.8164L57.5385 93.2077C56.9493 93.7971 56.1502 94.1284 55.317 94.1284H38.9008C38.0675 94.1284 37.2685 93.7973 36.6793 93.2077L17.2963 73.8164C15.4559 71.9753 12.4721 71.9753 10.6317 73.8164C8.79137 75.6576 8.79137 78.6426 10.6317 80.4838L32.9713 102.833V119.259L61.2466 119.357V102.833L83.5862 80.4838C85.4264 78.6426 85.4264 75.6576 83.586 73.8164Z" fill="black"/>
<path d="M39.3021 60.0245L38.1984 66.4626C38.0556 67.2956 38.398 68.1375 39.0814 68.6345C39.7647 69.131 40.6708 69.1969 41.4188 68.8035L47.1977 65.7638L52.9766 68.8035C53.3014 68.9742 53.656 69.0586 54.0092 69.0586C54.4694 69.0586 54.9273 68.9156 55.3139 68.6346C55.9974 68.1378 56.3397 67.2958 56.1969 66.4628L55.0933 60.0246L59.7686 55.465C60.3736 54.875 60.5914 53.9926 60.3302 53.1888C60.0692 52.3848 59.3747 51.7989 58.5387 51.6775L52.0776 50.7381L49.1877 44.8803C48.8139 44.1224 48.0424 43.6426 47.1975 43.6426C46.3527 43.6426 45.5812 44.1224 45.2073 44.8803L42.3179 50.7379L35.8568 51.6773C35.0208 51.7987 34.3261 52.3846 34.0653 53.1886C33.8041 53.9925 34.0219 54.8749 34.6269 55.4648L39.3021 60.0245Z" fill="url(#paint0_linear_30_10815)"/>
<defs>
<linearGradient id="paint0_linear_30_10815" x1="33.9565" y1="56.3506" x2="60.439" y2="56.3506" gradientUnits="userSpaceOnUse">
<stop stop-color="#6A11CB"/>
<stop offset="1" stop-color="#2575FC"/>
</linearGradient>
</defs>
</svg>
